<?xml version="1.0" encoding="utf-8" ?><svg xmlns="http://www.w3.org/2000/svg" xmlns:xlink="http://www.w3.org/1999/xlink" width="1024" height="1024" viewBox="0 0 1024 1024"><defs><linearGradient id="gradient_0" gradientUnits="userSpaceOnUse" x1="600.59338" y1="822.33405" x2="423.69095" y2="202.157"><stop offset="0" stop-color="#0051AD"/><stop offset="1" stop-color="#00AADF"/></linearGradient></defs><path fill="url(#gradient_0)" d="M509.97 188.838C688.585 187.476 834.474 331.191 835.794 509.807C837.115 688.423 693.366 834.278 514.749 835.557C336.192 836.835 190.396 693.144 189.076 514.587C187.756 336.03 331.413 190.2 509.97 188.838Z"/><path fill="#070F1D" d="M504.384 250.977C649.066 246.62 769.858 360.432 774.112 505.117C778.365 649.802 664.468 770.513 519.78 774.664C375.237 778.811 254.673 665.053 250.424 520.513C246.174 375.973 359.847 255.329 504.384 250.977Z"/><path fill="#002566" d="M504.214 358.972C507.145 357.171 519.453 357.027 522.341 358.986C587.887 359.913 657.256 381.262 706.15 426.145C729.319 447.414 745.535 471.368 746.567 503.607C747.729 539.895 738.625 562.905 713.778 589.587C664.464 642.541 591.42 663.081 521.015 665.162C504.474 665.98 490.938 664.437 474.16 662.941C398.704 656.211 305.373 617.416 279.818 539.632C277.78 533.43 277.288 514.462 276.939 507.489C275.553 479.805 290.872 454.445 309.235 434.967C360.563 382.055 432.551 361.117 504.214 358.972Z"/><path fill="#FEFEFE" d="M522.341 358.986C587.887 359.913 657.256 381.262 706.15 426.145C729.319 447.414 745.535 471.368 746.567 503.607C747.729 539.895 738.625 562.905 713.778 589.587C664.464 642.541 591.42 663.081 521.015 665.162C504.474 665.98 490.938 664.437 474.16 662.941C398.704 656.211 305.373 617.416 279.818 539.632C277.78 533.43 277.288 514.462 276.939 507.489C275.553 479.805 290.872 454.445 309.235 434.967C360.563 382.055 432.551 361.117 504.214 358.972C502.862 360.176 493.395 361.266 490.891 361.726C483.76 363.108 476.73 364.972 469.851 367.306C365.866 402.973 330.066 531.745 403.578 613.777C428.751 641.867 466.326 661.17 504.126 662.941C543.303 665.008 581.663 651.225 610.565 624.696C640.111 597.514 657.686 559.736 659.446 519.627C661.11 478.395 646.162 438.219 617.951 408.103C601.598 390.311 578.703 375.191 555.733 367.372C547.224 364.436 538.487 362.212 529.61 360.722C527.733 360.406 523.441 360.14 522.341 358.986Z"/><path fill="#FEFEFE" d="M512.107 378.235C518.522 392.207 526.273 403.749 534.556 416.683C543.47 430.475 552.287 444.33 561.004 458.248C569.765 472.233 577.539 483.824 582.651 499.844C588.623 518.559 588.872 538.937 581.997 557.464C578.097 567.974 573.292 574.99 566.178 583.468L566.538 583.925C565.98 586.292 556.687 593.213 554.39 594.939C538.605 606.801 513.76 610.588 494.725 607.005C482.298 604.666 460.326 589.85 453.283 579.347L452.899 578.765L452.201 579.183L451.308 578.848C443.706 567.762 440.931 563.596 436.969 550.297C436.443 548.533 435.415 545.063 436.219 543.546C436.78 544.884 437.341 548.301 437.671 549.907C438.238 548.656 437.559 546.385 437.273 544.833C433.727 525.544 435.662 508.938 443.403 490.392C446.055 484.198 449.08 478.171 452.462 472.344C462.01 455.981 473.828 438.395 484.153 422.419L500.001 397.505C501.302 395.424 507.642 384.345 509.333 383.655C510.37 381.779 511.253 380.224 512.107 378.235Z"/><path fill="#070F1D" d="M509.333 383.655C505.9 391.622 498.371 402.084 493.524 409.607L466.107 452.453C450.678 476.935 436.602 497.79 436.746 528.242C436.711 538.112 438.44 547.908 441.849 557.17C448.904 576.425 463.387 592.046 482.053 600.535C499.641 608.482 519.656 609.159 537.742 602.421C548.44 598.342 558.155 591.603 566.178 583.468L566.538 583.925C565.98 586.292 556.687 593.213 554.39 594.939C538.605 606.801 513.76 610.588 494.725 607.005C482.298 604.666 460.326 589.85 453.283 579.347L452.899 578.765L452.201 579.183L451.308 578.848C443.706 567.762 440.931 563.596 436.969 550.297C436.443 548.533 435.415 545.063 436.219 543.546C436.78 544.884 437.341 548.301 437.671 549.907C438.238 548.656 437.559 546.385 437.273 544.833C433.727 525.544 435.662 508.938 443.403 490.392C446.055 484.198 449.08 478.171 452.462 472.344C462.01 455.981 473.828 438.395 484.153 422.419L500.001 397.505C501.302 395.424 507.642 384.345 509.333 383.655Z"/><defs><linearGradient id="gradient_1" gradientUnits="userSpaceOnUse" x1="544.69897" y1="431.3418" x2="501.43967" y2="559.52271"><stop offset="0" stop-color="#001F93"/><stop offset="1" stop-color="#0097ED"/></linearGradient></defs><path fill="url(#gradient_1)" d="M503.653 422.905C506.976 416.103 509.803 410.133 512.377 402.943C515.474 412.964 517.94 416.404 521.717 425.2C528.223 436.588 535.198 447.701 542.625 458.511C560.911 485.271 582.048 510.796 573.045 545.839C571.823 550.594 565.417 565.791 561.831 568.052C555.575 578.654 539.791 587.742 528.06 590.653C511.489 594.822 493.94 592.203 479.309 583.378C463.564 573.803 454.732 560.499 450.387 542.887C442.738 499.134 473.163 474.71 493.156 440.277C496.48 434.552 500.072 428.426 503.653 422.905Z"/><defs><linearGradient id="gradient_2" gradientUnits="userSpaceOnUse" x1="504.84955" y1="554.65387" x2="495.37289" y2="589.19073"><stop offset="0" stop-color="#00A7EC"/><stop offset="1" stop-color="#00DFFF"/></linearGradient></defs><path fill="url(#gradient_2)" d="M450.387 542.887C455.946 542.179 464.758 545.46 470.5 546.538C494.181 550.981 516.538 558.329 539.185 566.435C545.097 568.552 551.669 569.667 557.596 571.925C559.049 570.129 559.714 568.975 561.831 568.052C555.575 578.654 539.791 587.742 528.06 590.653C511.489 594.822 493.94 592.203 479.309 583.378C463.564 573.803 454.732 560.499 450.387 542.887Z"/><path fill="#002566" d="M503.653 422.905C506.976 416.103 509.803 410.133 512.377 402.943C515.474 412.964 517.94 416.404 521.717 425.2L521.236 425.598C518.19 420.886 512.027 425.181 505.933 421.472C505.127 422.183 504.627 422.447 503.653 422.905Z"/><path fill="#FEFEFE" d="M490.377 465.012C490.462 465.261 490.546 465.511 490.63 465.76C478.198 486.826 482.578 499.793 482.536 522.17C482.52 531.087 476.75 538.466 467.124 532.307C450.81 514.485 479.279 479.036 490.377 465.012Z"/><path fill="#003C94" d="M393.418 497.917C396.158 495.755 398.398 498.815 398.585 495.896C398.843 491.89 399.338 487.098 399.208 483.14C398.886 473.318 406.099 464.734 406.716 455.593L405.837 455.128C404.802 454.574 404.491 454.356 403.552 453.6C407.893 452.326 414.393 460.398 418.599 459.555C421.051 455.832 417.212 445.471 418.945 442.06C422.371 435.315 431.718 424.697 439.232 422.562C444.05 421.193 451.263 416.717 454.038 413.069C454.038 412.126 451.265 408.26 450.56 407.032L450.756 406.495C452.371 407.574 466.141 428.595 466.043 429.328C464.139 442.832 449.67 456.7 443.461 468.258C439.093 476.388 433.606 491.737 430.093 500.029C428.678 503.371 426.291 538.02 426.896 539.321C430.92 541.606 430.411 555.767 432.346 559.934C447.819 592.785 478.324 617.418 516.062 615.447C533.214 614.551 548.512 610.672 562.151 599.559C572.443 591.211 580.829 580.756 586.746 568.898C599.852 542.749 598.909 518.013 588.959 490.603C584.273 477.696 579.005 468.57 572.813 456.347C570.559 451.897 565.906 447.593 564.826 442.634C564.108 439.334 568.623 438.41 568.977 434.871C568.172 432.001 563.069 429.732 563.894 427.034C566.75 417.693 572.257 426.2 575.462 426.725C578.599 425.247 578.425 421.252 581.632 421.349C588.955 425.552 593.078 437.671 596.594 444.264C597.713 443.945 606.144 438.438 607.693 437.494L608.28 437.534L608.478 437.353C608.022 438.223 605.584 439.844 604.53 440.716C611.295 448.311 612.759 458.63 616.006 467.771C616.407 468.9 616.53 469.372 616.796 470.535C619.759 470.788 625.783 467.745 627.125 469.161L623.798 470.113C624.276 471.759 624.123 471.851 625.132 473.177C624.861 474.137 626.976 482.528 627.38 484.427C628.634 490.314 624.716 505.44 629.145 509.282C630.383 509.127 631.181 509.04 632.425 508.998C636.663 513.937 635.264 533.69 631.947 539.511C631.888 539.614 626.261 549.174 626.778 548.62C631.427 550.355 634.796 548.963 638.501 551.654C636.64 551.941 635.027 550.817 632.273 551.065C625.204 561.668 622.982 571.083 617.597 582.169C614.954 587.146 611.054 591.283 607.578 595.647C605.342 598.566 604.049 602.36 601.379 604.913C590.048 615.745 576.885 623.313 563.174 630.694C558.813 633.042 552.767 633.684 548.138 635.586C545.987 636.47 543.274 637.744 541.176 638.76C532.443 642.991 523.039 644.291 513.426 643.655C506.254 643.205 498.537 643.801 491.418 642.577C485.737 641.601 480.19 639.418 474.633 637.967C467.571 636.278 459.748 635.921 453.278 632.27C440.751 625.268 429.513 616.176 420.049 605.387C418.495 603.648 416.852 601.999 415.434 600.145C414.051 598.789 415.834 596.995 414.461 595.544C405.205 585.768 404.595 577.067 400.63 564.954C398.335 557.944 394.434 551.655 392.225 543.799C391.481 543.388 391.924 543.582 390.853 543.241C392.517 541.777 395.727 543.016 398.064 541.237C397.496 536.794 392.233 527.34 392.256 520.514C392.269 516.754 390.669 499.444 392.66 496.965L393.418 497.917Z"/><defs><linearGradient id="gradient_3" gradientUnits="userSpaceOnUse" x1="633.95996" y1="530.69727" x2="597.22571" y2="523.23889"><stop offset="0" stop-color="#00388E"/><stop offset="1" stop-color="#0055B0"/></linearGradient></defs><path fill="url(#gradient_3)" d="M629.145 509.282C630.383 509.127 631.181 509.04 632.425 508.998C636.663 513.937 635.264 533.69 631.947 539.511C631.888 539.614 626.261 549.174 626.778 548.62C631.427 550.355 634.796 548.963 638.501 551.654C636.64 551.941 635.027 550.817 632.273 551.065C629.368 550.74 627.416 549.835 624.02 549.229C617.154 548.004 608.222 546.431 601.215 546.012C600.517 546.459 599.938 546.83 599.48 547.124C598.962 545.444 600.638 546.778 601.318 544.576L599.25 544.385L599.195 543.508C603.498 536.225 598.733 516.637 599.887 514.26C606.911 510.214 620.587 512.253 629.145 509.282Z"/></svg>
